Coordinates
version=1
nRows=23
nColumns=30
inDegrees=yes

Units are S.I. units (second, meters, Newtons, ...)
Angles are in degrees.

endheader
time	floatyaw	floatroll	floatpitch	floatx	floaty	floatz	pro_sup_l	deviation_l	flexion_l	cmc_flexion_l	cmc_abduction_l	mp_flexion_l	ip_flexion_l	2mcp_flexion_l	2mcp_abduction_l	2pm_flexion_l	2md_flexion_l	3mcp_flexion_l	3mcp_abduction_l	3pm_flexion_l	3md_flexion_l	4mcp_flexion_l	4mcp_abduction_l	4pm_flexion_l	4md_flexion_l	5mcp_flexion_l	5mcp_abduction_l	5pm_flexion_l	5md_flexion_l
-0.995000	-160.147433	-5.066637	-73.570646	0.081598	-0.181812	-0.017290	101.966410	5.232602	-0.074452	16.022125	12.043135	-25.430236	-42.423206	29.357975	6.876808	43.492605	29.679782	23.507157	4.231863	44.827467	29.692313	12.614541	-4.270633	52.406674	36.023165	0.467207	-8.440436	61.537641	43.083765
-0.985000	-160.147433	-5.066637	-73.570646	0.081599	-0.181805	-0.017277	101.963147	5.235750	-0.073398	15.981059	12.051883	-25.405150	-42.389409	29.364573	6.888973	43.499266	29.678072	23.503279	4.238083	44.833811	29.695918	12.617872	-4.271845	52.420248	36.029217	0.492939	-8.445462	61.536997	43.075938
-0.975000	-160.147433	-5.066637	-73.570646	0.081602	-0.181800	-0.017267	101.955708	5.236856	-0.069008	15.939824	12.059681	-25.388887	-42.353190	29.362997	6.897648	43.506067	29.681789	23.496599	4.242830	44.831104	29.699941	12.608342	-4.273569	52.439189	36.039791	0.505771	-8.449570	61.537450	43.072663
-0.965000	-160.147433	-5.066637	-73.570646	0.081605	-0.181798	-0.017261	101.941361	5.233824	-0.061545	15.897438	12.070151	-25.388127	-42.325743	29.356525	6.900717	43.513461	29.689618	23.490179	4.244699	44.818936	29.701946	12.587007	-4.274764	52.459514	36.052079	0.503022	-8.453453	61.540269	43.074984
-0.955000	-160.147433	-5.066637	-73.570646	0.081607	-0.181799	-0.017261	101.918134	5.224961	-0.052138	15.853554	12.086254	-25.404559	-42.314401	29.350765	6.897722	43.524068	29.699936	23.487457	4.242939	44.802691	29.701362	12.558789	-4.274305	52.477202	36.062712	0.486675	-8.457281	61.546094	43.081994
-0.945000	-160.147433	-5.066637	-73.570646	0.081609	-0.181802	-0.017265	101.886790	5.210025	-0.042358	15.809307	12.108818	-25.434002	-42.319837	29.350556	6.890464	43.540325	29.711140	23.490128	4.237954	44.791704	29.700125	12.530680	-4.271603	52.489725	36.069100	0.462746	-8.460680	61.555066	43.091293
-0.935000	-160.147433	-5.066637	-73.570646	0.081608	-0.181805	-0.017271	101.851593	5.190834	-0.033523	15.767002	12.135587	-25.467844	-42.335860	29.357298	6.882354	43.561889	29.721810	23.496518	4.231314	44.795051	29.701899	12.508924	-4.266999	52.496635	36.070347	0.438794	-8.463229	61.566924	43.099969
-0.925000	-160.147433	-5.066637	-73.570646	0.081606	-0.181807	-0.017277	101.818981	5.170904	-0.026052	15.728756	12.161926	-25.496387	-42.352230	29.368279	6.876779	43.584925	29.730931	23.501564	4.225239	44.817224	29.710265	12.496427	-4.261670	52.499219	36.067394	0.420765	-8.465107	61.580963	43.105628
-0.915000	-160.147433	-5.066637	-73.570646	0.081602	-0.181804	-0.017282	101.794658	5.154129	-0.019204	15.695101	12.183095	-25.512813	-42.359467	29.378233	6.875421	43.603852	29.738093	23.498741	4.221785	44.855734	29.726673	12.491655	-4.257118	52.499629	36.062416	0.410686	-8.467301	61.595925	43.107053
-0.905000	-160.147433	-5.066637	-73.570646	0.081600	-0.181798	-0.017286	101.780842	5.143153	-0.011485	15.664716	12.196557	-25.515968	-42.353535	29.382202	6.877571	43.614202	29.743303	23.483303	4.222111	44.901501	29.749030	12.489630	-4.254532	52.500010	36.057782	0.406276	-8.471101	61.609977	43.104311
-0.895000	-160.147433	-5.066637	-73.570646	0.081598	-0.181789	-0.017288	101.775417	5.138294	-0.001658	15.635569	12.202949	-25.510502	-42.338125	29.378408	6.880871	43.614497	29.746234	23.455374	4.226127	44.941773	29.771697	12.484758	-4.254401	52.501928	36.055078	0.402738	-8.477150	61.620827	43.098416
-0.885000	-160.147433	-5.066637	-73.570646	0.081599	-0.181781	-0.017290	101.773457	5.137546	0.010073	15.606539	12.205619	-25.504072	-42.323202	29.369901	6.882980	43.606083	29.745300	23.421229	4.232623	44.964699	29.787282	12.474292	-4.256491	52.506045	36.054588	0.396070	-8.484805	61.625980	43.090757
-0.875000	-160.147433	-5.066637	-73.570646	0.081601	-0.181776	-0.017290	101.770064	5.137663	0.021498	15.578199	12.209429	-25.503038	-42.320274	29.364060	6.883088	43.591596	29.737497	23.391728	4.239809	44.963945	29.789691	12.460598	-4.260051	52.511836	36.055360	0.386314	-8.492352	61.623114	43.082532
-0.865000	-160.147433	-5.066637	-73.570646	0.081603	-0.181774	-0.017292	101.762766	5.135776	0.029067	15.552175	12.219174	-25.509144	-42.336522	29.369714	6.882280	43.573585	29.719689	23.378202	4.246011	44.941321	29.776993	12.450687	-4.264089	52.517387	36.055741	0.378734	-8.497943	61.610606	43.074426
-0.855000	-160.147433	-5.066637	-73.570646	0.081601	-0.181776	-0.017295	101.752259	5.130753	0.029652	15.529657	12.237691	-25.519027	-42.370726	29.392898	6.882575	43.554212	29.690920	23.387550	4.250219	44.905991	29.752515	12.452775	-4.267627	52.519653	36.054174	0.381685	-8.500551	61.588214	43.066684
-0.845000	-160.147433	-5.066637	-73.570646	0.081595	-0.181778	-0.017297	101.741295	5.123572	0.022450	15.510253	12.264450	-25.526594	-42.413220	29.433396	6.885353	43.535891	29.654304	23.418956	4.252252	44.870583	29.723547	12.471542	-4.269955	52.515539	36.049975	0.401877	-8.500243	61.557610	43.059495
-0.835000	-160.147433	-5.066637	-73.570646	0.081586	-0.181779	-0.017299	101.732565	5.116471	0.009819	15.492102	12.295801	-25.526622	-42.450114	29.484115	6.890231	43.521948	29.617037	23.463937	4.252513	44.846101	29.698297	12.504866	-4.270833	52.503507	36.043757	0.439740	-8.497708	61.522274	43.053361
-0.825000	-160.147433	-5.066637	-73.570646	0.081575	-0.181776	-0.017299	101.726913	5.111402	-0.003578	15.473263	12.326987	-25.517554	-42.469582	29.533872	6.895112	43.516457	29.588140	23.509801	4.251536	44.837930	29.682570	12.544165	-4.270565	52.484889	36.037287	0.487938	-8.493560	61.486430	43.049085
-0.815000	-160.147433	-5.066637	-73.570646	0.081565	-0.181770	-0.017296	101.723050	5.108802	-0.012871	15.453434	12.354391	-25.502193	-42.466812	29.572112	6.897405	43.522931	29.574944	23.544861	4.249717	44.844429	29.677734	12.578210	-4.269880	52.464143	36.032962	0.534304	-8.487990	61.453398	43.047300
-0.805000	-160.147433	-5.066637	-73.570646	0.081559	-0.181760	-0.017292	101.718802	5.107435	-0.015068	15.434696	12.376339	-25.486327	-42.445122	29.592959	6.895732	43.542419	29.580138	23.562846	4.247359	44.858478	29.680870	12.598028	-4.269664	52.447855	36.033146	0.567440	-8.480907	61.424468	43.047905
-0.795000	-160.147433	-5.066637	-73.570646	0.081555	-0.181751	-0.017288	101.712764	5.105267	-0.009948	15.420525	12.392348	-25.476281	-42.413386	29.596576	6.891022	43.572099	29.600811	23.564424	4.244842	44.871264	29.686999	12.600002	-4.270623	52.442757	36.039507	0.581452	-8.472280	61.399266	43.049906
-0.785000	-160.147433	-5.066637	-73.570646	0.081555	-0.181743	-0.017288	101.705094	5.100680	0.000568	15.413559	12.402140	-25.476527	-42.381836	29.587632	6.886183	43.605353	29.629748	23.555393	4.242603	44.876577	29.692005	12.585952	-4.272986	52.453279	36.052281	0.577177	-8.462423	61.377427	43.051912
-0.775000	-160.147433	-5.066637	-73.570646	0.081554	-0.181737	-0.017290	101.697033	5.093313	0.013865	15.413552	12.405571	-25.488027	-42.358468	29.572388	6.884427	43.633578	29.658120	23.542998	4.240857	44.873458	29.694510	12.561132	-4.276363	52.479283	36.069650	0.559998	-8.452093	61.360085	43.053020
